<?xml version="1.0" encoding="UTF-8"?>
<svg id="Calque_1" data-name="Calque 1" xmlns="http://www.w3.org/2000/svg" version="1.1" viewBox="0 0 125.3 161.3">
  <defs>
    <style>
      .cls-1 {
        fill: #00a79f;
      }

      .cls-1, .cls-2 {
        stroke-width: 0px;
      }

      .cls-2 {
        fill: #fff;
      }
    </style>
  </defs>
  <circle class="cls-1" cx="61.8" cy="80" r="57.2"/>
  <path class="cls-2" d="M83.5,100.9c-.2,0-.4,0-.7,0l-10.7-18.5c3.3-2.5,5.4-6.5,5.4-10.9,0-6.8-5-12.5-11.6-13.6v-7.5c4-1.2,6.9-4.9,6.9-9.3s-4.4-9.8-9.8-9.8-9.8,4.4-9.8,9.8,2.9,8.1,6.9,9.3v7.8c-5.9,1.5-10.2,6.9-10.2,13.3s0,.3,0,.5l-3.5,1.2-2.6.9-7.7,2.7c-1.8-1.8-4.2-2.9-7-2.9-5.4,0-9.8,4.4-9.8,9.8s4.4,9.8,9.8,9.8,9.8-4.4,9.8-9.8,0-1.2-.2-1.7l12.5-4.4c.7,1.5,1.8,2.9,3,4.1l-4.7,7.7-1.9,3.2-7.3,12c-.7-.1-1.4-.2-2.1-.2-5.4,0-9.8,4.4-9.8,9.8s4.4,9.8,9.8,9.8,9.8-4.4,9.8-9.8-1-5-2.8-6.8l13.8-22.7c1.4.5,2.9.8,4.5.8s2.2-.1,3.2-.4l3.3,5.7,1.7,3,5.5,9.4c-2.3,1.8-3.8,4.6-3.8,7.7,0,5.4,4.4,9.8,9.8,9.8s9.8-4.4,9.8-9.8-4.4-9.8-9.8-9.8ZM29.4,87.9c-2.4,0-4.3-1.9-4.3-4.3s1.9-4.3,4.3-4.3,4.3,1.9,4.3,4.3-1.9,4.3-4.3,4.3ZM38.5,118.2c-2.4,0-4.3-1.9-4.3-4.3s1.9-4.3,4.3-4.3,4.3,1.9,4.3,4.3-1.9,4.3-4.3,4.3ZM58.8,41c0-2.4,1.9-4.3,4.3-4.3s4.3,1.9,4.3,4.3-1.9,4.3-4.3,4.3-4.3-1.9-4.3-4.3ZM63.8,65.3c3.4,0,6.1,2.7,6.1,6.1s-2.7,6.1-6.1,6.1-6.1-2.7-6.1-6.1,2.7-6.1,6.1-6.1ZM83.5,115c-2.4,0-4.3-1.9-4.3-4.3s1.9-4.3,4.3-4.3,4.3,1.9,4.3,4.3-1.9,4.3-4.3,4.3Z"/>
</svg>